<?xml version="1.0" standalone="no"?>
<!DOCTYPE svg PUBLIC "-//W3C//DTD SVG 20010904//EN"
 "http://www.w3.org/TR/2001/REC-SVG-20010904/DTD/svg10.dtd">
<svg version="1.0" xmlns="http://www.w3.org/2000/svg"
 width="500.000000pt" height="500.000000pt" viewBox="0 0 500.000000 500.000000"
 preserveAspectRatio="xMidYMid meet">
<metadata>
Created by potrace 1.16, written by Peter Selinger 2001-2019
</metadata>
<g transform="translate(0.000000,500.000000) scale(0.100000,-0.100000)"
fill="#000000" stroke="none">
<path d="M0 2500 l0 -2500 2500 0 2500 0 0 2500 0 2500 -2500 0 -2500 0 0
-2500z m2553 1953 c-56 -2 -151 -2 -210 0 -59 1 -13 3 102 3 116 0 164 -2 108
-3z m-470 -10 c-13 -2 -33 -2 -45 0 -13 2 -3 4 22 4 25 0 35 -2 23 -4z m770 0
c-13 -2 -35 -2 -50 0 -16 2 -5 4 22 4 28 0 40 -2 28 -4z m-905 -10 c-10 -2
-26 -2 -35 0 -10 3 -2 5 17 5 19 0 27 -2 18 -5z m1050 0 c-10 -2 -26 -2 -35 0
-10 3 -2 5 17 5 19 0 27 -2 18 -5z m-1145 -10 c-7 -2 -19 -2 -25 0 -7 3 -2 5
12 5 14 0 19 -2 13 -5z m1224 1 c-3 -3 -12 -4 -19 -1 -8 3 -5 6 6 6 11 1 17
-2 13 -5z m-1297 -20 c-19 -8 -38 -20 -42 -27 -6 -9 -8 -9 -8 0 0 14 47 42 70
42 8 0 -1 -7 -20 -15z m1411 -21 c13 -16 12 -17 -3 -4 -17 13 -22 21 -14 21 2
0 10 -8 17 -17z m-1464 -55 c-3 -7 -5 -2 -5 12 0 14 2 19 5 13 2 -7 2 -19 0
-25z m1480 0 c-3 -7 -5 -2 -5 12 0 14 2 19 5 13 2 -7 2 -19 0 -25z m5 -45 c-3
-16 -7 -22 -10 -15 -4 13 4 42 11 42 2 0 2 -12 -1 -27z m-639 -32 c-13 -13
-26 -18 -45 -14 -50 10 -30 31 30 32 32 1 32 0 15 -18z m-831 -483 c-5 -509
-3 -643 8 -798 6 -80 15 -343 20 -584 5 -241 11 -440 13 -442 1 -1 49 -6 105
-10 56 -4 105 -11 108 -15 2 -4 7 -45 11 -89 5 -63 3 -84 -7 -90 -16 -10 -126
-25 -157 -21 -13 1 -23 -3 -23 -9 0 -6 -4 -9 -8 -6 -5 3 -9 -8 -10 -24 -2 -62
-33 -68 -52 -10 -7 21 -17 37 -21 34 -5 -3 -9 -1 -9 4 0 5 -37 13 -82 16 -127
11 -125 10 -138 71 -6 30 -10 73 -8 97 l3 43 103 3 102 3 1 47 c7 214 -2 283
-49 382 -15 30 -27 57 -27 60 0 3 -8 22 -18 43 -10 20 -21 61 -24 90 -3 28
-11 55 -17 59 -6 4 -25 -2 -43 -12 -18 -11 -33 -15 -33 -10 0 5 8 14 18 19 16
10 16 10 0 11 -10 0 -18 -4 -18 -9 0 -5 -11 -11 -24 -13 -21 -4 -24 -1 -23 20
3 30 23 41 30 15 3 -13 5 -11 6 6 1 22 3 23 14 9 13 -17 63 -37 54 -21 -3 5 3
15 15 22 11 7 17 8 13 2 -8 -14 4 -14 44 0 18 7 31 18 30 27 -1 22 -17 61 -18
44 -1 -7 -13 -17 -28 -23 -15 -5 -33 -19 -41 -30 -7 -10 -18 -17 -23 -14 -5 4
-9 1 -9 -4 0 -6 -7 -11 -15 -11 -8 0 -15 8 -15 18 0 13 2 14 9 4 7 -11 9 -11
14 1 4 11 -3 14 -26 12 -18 -1 -69 -2 -115 -3 -53 -1 -81 -6 -77 -12 4 -6 11
-7 17 -4 15 10 29 -18 16 -33 -8 -10 -6 -13 6 -13 19 0 21 -16 4 -23 -7 -3 -3
-6 10 -6 27 -1 27 -6 2 -38 -12 -15 -20 -20 -20 -12 0 11 -2 11 -10 -1 -6 -9
-5 -17 2 -21 21 -13 -10 -38 -40 -33 -31 6 -42 14 -19 14 10 0 14 5 11 15 -7
18 -34 20 -35 3 0 -10 -2 -10 -6 0 -7 17 -43 15 -43 -3 0 -14 -17 -20 -47 -16
-7 1 -24 -6 -38 -15 -14 -9 -25 -13 -25 -9 0 4 -6 3 -12 -3 -9 -7 -17 -5 -27
5 -12 13 -12 15 0 11 7 -2 22 4 33 14 14 12 23 15 32 7 9 -7 14 -5 19 10 7 24
21 27 29 9 3 -10 8 -9 18 3 7 9 18 14 25 12 22 -8 33 30 14 53 -14 18 -19 19
-30 7 -14 -16 -37 -12 -33 6 1 6 -2 11 -8 11 -5 0 -10 -9 -10 -20 0 -11 -5
-19 -11 -18 -6 2 -14 -3 -16 -9 -3 -7 0 -13 6 -13 6 0 11 -8 10 -17 0 -11 -3
-13 -6 -5 -2 6 -9 9 -15 6 -6 -4 -15 0 -20 7 -7 11 -11 11 -15 2 -2 -7 -17
-13 -31 -12 -15 0 -21 3 -14 6 6 2 9 10 5 16 -4 6 -1 8 8 5 10 -4 15 1 15 13
0 12 -7 19 -20 19 -24 0 -12 13 14 15 10 1 18 -3 17 -8 -3 -15 34 -17 48 -3 9
8 10 18 4 27 -7 11 -9 11 -9 1 0 -7 -4 -10 -10 -7 -5 3 -10 1 -10 -6 0 -7 -3
-9 -7 -5 -7 7 34 45 50 46 4 0 7 -8 7 -17 0 -15 2 -16 9 -3 6 8 7 18 4 24 -4
5 1 7 10 3 10 -3 17 -2 17 4 0 7 -35 10 -104 8 -104 -4 -105 -4 -129 25 -15
17 -25 42 -25 60 -1 17 -5 56 -10 86 l-10 55 1 -85 c0 -47 -4 -102 -8 -122 -7
-35 -5 -39 23 -55 30 -17 56 -67 57 -111 1 -20 -1 -21 -10 -8 -10 13 -14 10
-23 -21 -6 -20 -9 -40 -6 -45 3 -4 -2 -8 -11 -8 -9 0 -14 -4 -10 -9 3 -6 -10
-39 -29 -75 -62 -118 -63 -126 -37 -676 6 -135 16 -292 21 -349 6 -57 8 -106
6 -109 -9 -9 -212 49 -274 78 -137 64 -263 177 -315 284 -54 110 -55 248 -2
378 36 88 136 250 221 358 147 187 258 459 359 875 107 441 190 628 354 798
129 134 235 186 401 196 102 6 105 7 110 31 9 53 15 -153 12 -462z m1455 415
c-2 -16 -4 -5 -4 22 0 28 2 40 4 28 2 -13 2 -35 0 -50z m-22 -75 c-10 -13 -14
-16 -11 -8 3 8 9 24 13 35 4 11 8 14 11 7 2 -6 -4 -22 -13 -34z m-640 -148 c3
-5 -1 -10 -9 -10 -8 0 -18 5 -21 10 -3 6 1 10 9 10 8 0 18 -4 21 -10z m643
-71 c-3 -8 -7 -3 -11 10 -4 17 -3 21 5 13 5 -5 8 -16 6 -23z m-642 -55 c14
-21 15 -27 4 -34 -19 -11 -54 4 -58 25 -4 16 13 34 30 35 4 0 15 -12 24 -26z
m621 -26 c-3 -7 -5 -2 -5 12 0 14 2 19 5 13 2 -7 2 -19 0 -25z m-687 2 c0 -5
-2 -10 -4 -10 -3 0 -8 5 -11 10 -3 6 -1 10 4 10 6 0 11 -4 11 -10z m90 -50 c0
-5 -15 -10 -32 -10 -25 0 -29 3 -18 10 20 13 50 13 50 0z m685 -68 c50 -2 158
4 240 13 296 30 504 14 641 -51 82 -38 175 -134 205 -210 19 -51 22 -76 22
-184 -1 -107 -6 -142 -32 -240 -53 -193 -72 -306 -72 -420 0 -167 22 -250 126
-485 76 -169 101 -249 115 -359 27 -216 -57 -389 -256 -532 -111 -79 -233
-120 -392 -131 -49 -4 -97 -12 -109 -21 -13 -8 -23 -12 -23 -9 0 2 17 16 39
30 73 48 103 129 121 327 67 742 70 861 28 965 -21 52 -27 60 -48 57 -14 -1
-20 1 -14 5 11 8 12 48 2 59 -4 3 -9 -3 -12 -14 -4 -11 -16 -22 -28 -25 -15
-4 -19 -11 -15 -26 4 -16 0 -21 -14 -21 -10 0 -19 5 -19 11 0 5 5 7 10 4 6 -3
10 1 10 9 0 8 8 21 18 28 9 7 18 20 20 28 2 8 7 17 11 20 5 3 5 14 1 25 -7 20
-7 20 -14 -2 -4 -11 -13 -24 -21 -27 -8 -3 -15 -15 -15 -26 0 -11 -4 -20 -10
-20 -5 0 -10 3 -10 6 0 11 34 64 41 64 11 0 17 37 8 51 -6 10 -13 10 -33 1
-36 -16 -43 3 -9 23 27 15 27 16 3 10 -23 -6 -23 -5 -7 8 9 8 17 19 17 25 0
10 29 26 43 24 4 -1 7 4 7 11 0 8 3 8 9 -2 8 -12 13 -12 36 3 25 17 26 18 8
31 -24 19 -38 18 -53 0 -7 -8 -17 -12 -23 -8 -6 3 -7 1 -3 -5 7 -12 -28 -35
-38 -25 -4 4 -9 -2 -12 -14 -4 -14 -11 -20 -20 -16 -11 4 -8 12 13 32 l28 26
-40 3 c-22 2 -41 0 -42 -5 -2 -4 -27 -7 -55 -6 l-53 2 45 -11 c67 -15 70 -16
70 -30 0 -10 -2 -10 -9 1 -7 10 -22 12 -62 7 -30 -4 -65 -7 -78 -8 -18 0 -21
-2 -10 -9 11 -7 11 -9 -3 -9 -10 0 -18 6 -18 14 0 17 -41 29 -54 16 -15 -15
-36 -12 -30 5 4 8 18 15 33 16 26 1 26 1 -4 9 -16 4 -60 10 -97 13 -58 4 -68
2 -68 -12 0 -9 -9 -22 -20 -29 -20 -12 -25 -6 -14 22 3 9 10 13 15 10 5 -3 9
-1 9 4 0 17 -50 20 -59 4 -7 -13 -10 -12 -15 6 -4 11 -16 24 -26 27 -10 3 -22
15 -25 26 -11 33 -31 18 -41 -32 -4 -21 43 -65 79 -73 25 -6 26 -8 12 -22 -8
-8 -15 -25 -15 -36 0 -11 -13 -42 -28 -67 -99 -161 -129 -293 -117 -523 l7
-127 89 -7 c49 -3 93 -12 98 -18 7 -8 7 -36 0 -82 -14 -98 -22 -114 -59 -114
-25 0 -30 -3 -26 -17 7 -24 -17 -116 -32 -121 -7 -2 -12 1 -12 7 0 6 5 11 10
11 19 0 10 29 -12 41 -13 7 -26 17 -30 22 -3 6 -22 12 -42 13 -33 3 -41 -3
-38 -28 1 -3 -4 -11 -11 -16 -18 -16 -37 0 -41 34 -2 16 -4 32 -5 37 0 4 -11
7 -23 7 -17 0 -19 3 -10 9 9 5 -13 11 -58 15 -122 12 -121 12 -115 106 l4 81
-32 -6 c-62 -12 -67 -16 -68 -43 -3 -84 -11 -137 -20 -143 -6 -3 -9 -10 -7
-15 1 -5 -7 -10 -20 -12 -15 -2 -29 -15 -38 -35 -15 -31 -14 -10 1 26 6 15 1
17 -43 17 -35 0 -52 -4 -56 -15 -3 -8 0 -15 7 -15 7 0 13 -14 14 -30 1 -19 -3
-30 -11 -30 -8 0 -16 -17 -20 -40 -7 -45 -16 -50 -111 -53 l-60 -2 -16 81
c-19 93 -32 123 -57 123 -9 1 -35 3 -57 7 -30 4 -36 3 -25 -5 17 -12 1 -15
-25 -5 -9 4 -12 10 -7 13 6 3 8 45 5 102 l-6 95 -73 33 c-90 41 -150 90 -141
115 7 17 9 17 31 3 18 -12 26 -13 36 -4 10 9 11 9 6 0 -7 -13 40 -50 51 -40 3
4 -2 9 -11 13 -15 6 -15 7 0 19 12 8 15 18 9 31 -4 10 -7 29 -6 42 2 13 -3 30
-9 38 -10 11 -10 14 0 14 10 0 10 3 0 15 -7 8 -16 15 -21 15 -13 0 -11 -44 4
-59 10 -11 10 -13 0 -7 -8 4 -14 2 -15 -6 0 -7 -4 9 -7 36 -6 50 -25 72 -34
39 -4 -16 -5 -15 -6 2 0 11 -8 31 -17 43 -23 33 -12 37 35 13 53 -28 60 -26
25 4 -22 20 -24 24 -9 20 18 -6 18 -5 2 5 -9 6 -23 8 -30 4 -6 -4 -9 -3 -4 1
4 5 0 16 -8 25 -14 16 -13 17 25 15 l40 -2 -46 29 c-45 28 -46 30 -38 66 4 20
7 70 6 109 l-3 73 48 -19 c26 -10 66 -24 88 -29 l40 -11 -29 23 c-16 13 -36
23 -45 21 -9 -1 -29 8 -44 21 -16 13 -33 24 -38 24 -5 0 -9 9 -9 20 0 11 3 20
8 20 4 0 13 -9 20 -20 14 -22 61 -27 80 -8 7 7 12 33 12 58 0 53 -37 105 -82
116 -24 5 -28 2 -37 -28 l-9 -33 -1 30 c-1 17 -5 46 -11 64 -5 19 -7 37 -5 40
3 2 40 -7 83 -22 103 -35 138 -43 262 -63 119 -18 407 -20 505 -4 103 18 195
42 195 51 0 11 4 12 -55 -7 -193 -59 -489 -58 -732 2 -93 23 -213 67 -213 78
0 3 30 -4 68 -15 314 -93 769 -85 1001 17 29 13 56 24 59 24 2 0 2 -22 -2 -50
-7 -52 -21 -308 -31 -550 -3 -80 -8 -191 -11 -248 l-6 -102 -91 -50 -92 -50
101 0 101 0 7 93 c4 50 11 133 16 182 5 50 14 171 20 270 12 191 40 509 65
740 9 77 15 190 14 250 -3 127 12 336 21 290 l5 -30 90 -3z m-690 -462 c-7
-12 -64 -10 -71 2 -3 4 13 8 36 8 25 0 39 -4 35 -10z m-660 -298 c-3 -3 -11 0
-18 7 -9 10 -8 11 6 5 10 -3 15 -9 12 -12z m87 -197 c10 -39 0 -75 -22 -75
-36 0 -62 69 -40 110 10 19 14 20 33 7 11 -7 24 -27 29 -42z m-92 -22 c0 -58
-16 -73 -24 -23 -7 42 -2 60 15 60 5 0 9 -17 9 -37z m1298 -4 c-2 -6 -8 -10
-13 -10 -5 0 -11 4 -13 10 -2 6 4 11 13 11 9 0 15 -5 13 -11z m56 -14 c-4 -8
-13 -15 -22 -15 -13 0 -12 3 4 15 24 18 25 18 18 0z m163 -2 c-15 -4 -16 -7
-6 -21 11 -14 11 -15 1 -6 -14 12 -59 7 -68 -7 -3 -5 -13 -9 -22 -9 -11 0 -6
6 12 15 15 8 35 15 43 15 8 0 11 5 8 10 -4 6 5 10 22 9 18 -1 21 -3 10 -6z
m-2381 -38 c-3 -22 -13 -28 -33 -21 -17 7 -17 8 1 22 25 18 35 18 32 -1z
m2454 2 c0 -8 -7 -14 -15 -14 -11 0 -12 4 -4 14 6 7 13 13 15 13 2 0 4 -6 4
-13z m190 3 c0 -5 -8 -10 -17 -11 -11 0 -13 -3 -5 -6 19 -7 14 -22 -7 -20 -11
0 -17 5 -14 9 2 5 -8 6 -24 2 -40 -10 -73 -23 -73 -28 0 -3 6 -3 13 -1 6 2 25
7 41 9 26 5 28 4 15 -9 -8 -8 -26 -16 -41 -17 -21 -2 -25 -5 -17 -19 12 -23
-18 -50 -32 -28 -4 8 -6 23 -2 34 3 11 7 29 8 40 1 15 9 20 28 20 15 -1 27 2
27 6 0 4 8 6 17 5 9 -2 28 3 42 11 31 16 41 16 41 3z m-380 -10 c0 -5 -4 -10
-9 -10 -6 0 -13 5 -16 10 -3 6 1 10 9 10 9 0 16 -4 16 -10z m110 -10 c0 -5 -4
-10 -10 -10 -5 0 -10 5 -10 10 0 6 5 10 10 10 6 0 10 -4 10 -10z m-1970 -8 c0
-5 -7 -9 -15 -9 -8 0 -12 4 -9 9 3 4 9 8 15 8 5 0 9 -4 9 -8z m1914 -3 c-6
-10 -64 -17 -64 -8 0 9 17 15 46 15 12 0 21 -3 18 -7z m-1954 -9 c0 -5 -5 -10
-11 -10 -5 0 -7 5 -4 10 3 6 8 10 11 10 2 0 4 -4 4 -10z m40 -19 c0 -5 -9 -11
-20 -14 -20 -5 -26 3 -13 16 9 10 33 8 33 -2z m110 -9 c0 -18 -45 -51 -58 -43
-10 6 -7 13 14 30 28 22 44 27 44 13z m1684 -1 c3 -5 -1 -14 -8 -20 -12 -10
-13 -8 -9 8 6 23 9 25 17 12z m56 -21 c0 -5 -4 -10 -10 -10 -5 0 -10 5 -10 10
0 6 5 10 10 10 6 0 10 -4 10 -10z m147 -7 c0 -6 -4 -10 -8 -7 -4 2 -9 -1 -11
-6 -2 -6 -10 -12 -18 -13 -8 -2 -19 -5 -25 -8 -16 -8 -38 -5 -42 6 -2 6 10 16
26 22 25 9 31 8 34 -6 3 -11 5 -9 6 6 1 15 7 21 19 20 10 0 19 -7 19 -14z
m-2013 -54 c-10 -11 -23 -18 -30 -15 -8 3 -11 -1 -7 -10 3 -7 0 -14 -6 -14 -6
0 -11 7 -11 16 0 18 25 46 34 37 3 -4 6 -1 6 6 0 7 5 9 10 6 6 -3 11 2 11 12
1 17 2 17 6 0 3 -10 -3 -27 -13 -38z m131 -5 c-20 -26 -30 -32 -39 -25 -9 8
-12 6 -12 -7 1 -9 -3 -18 -9 -20 -5 -2 -15 -13 -21 -24 -13 -24 -40 -32 -51
-16 -4 7 2 9 15 6 21 -6 31 5 15 15 -5 2 -2 2 6 0 9 -2 11 2 7 14 -4 10 -4 14
0 10 4 -4 16 7 27 25 15 25 21 28 28 17 5 -8 9 -9 9 -3 0 15 44 63 48 52 2 -5
-8 -24 -23 -44z m2105 49 c0 -16 -16 -31 -47 -47 -25 -12 -33 -13 -33 -4 -1 8
-6 6 -15 -6 -18 -24 -65 -48 -82 -41 -8 2 -11 0 -8 -5 7 -11 -43 -26 -53 -16
-3 4 0 11 8 16 9 6 17 5 22 -3 5 -8 8 -7 8 5 0 10 9 22 19 28 27 14 31 13 24
-7 -4 -11 -2 -15 3 -10 5 5 9 19 9 30 0 17 6 22 25 22 14 0 36 8 50 18 23 16
25 16 31 0 5 -14 7 -14 11 5 6 20 28 32 28 15z m-348 -32 c8 12 9 12 6 0 -6
-22 -28 -25 -27 -4 0 12 2 14 6 4 5 -11 7 -11 15 0z m128 -19 c0 -9 -6 -12
-16 -8 -8 3 -12 2 -9 -4 6 -9 1 -11 -37 -14 -7 -1 -16 -5 -20 -11 -4 -5 -8 1
-8 14 0 20 2 22 15 11 9 -7 19 -10 22 -6 4 4 1 11 -6 16 -11 6 -10 9 5 12 33
8 54 4 54 -10z m-2001 -28 c-6 -7 -15 -12 -19 -9 -4 3 -10 -5 -14 -18 -5 -18
-8 -20 -16 -7 -8 12 -10 11 -10 -6 0 -26 -25 -50 -35 -34 -4 6 -1 9 6 8 6 -2
14 3 17 11 3 9 0 11 -9 6 -8 -4 6 11 30 34 24 22 48 38 53 35 5 -3 4 -12 -3
-20z m132 2 c-7 -8 -10 -20 -7 -25 4 -5 2 -12 -4 -16 -15 -9 -54 -15 -46 -7 7
7 11 8 39 11 8 1 8 4 -3 11 -12 7 -12 12 5 29 20 23 35 20 16 -3z m2099 7 c0
-8 -4 -12 -9 -9 -5 3 -11 -1 -15 -9 -3 -8 -10 -15 -15 -15 -7 0 -7 8 0 23 12
26 39 32 39 10z m-2484 -12 c20 3 34 -2 34 -12 0 -6 -6 -9 -12 -6 -7 2 -19 -3
-26 -12 -8 -10 -11 -10 -6 -2 6 11 2 13 -17 7 -49 -14 -59 -15 -60 -3 0 7 -4
2 -9 -10 -10 -26 -37 -31 -37 -8 0 8 20 22 46 31 25 10 50 21 55 26 6 4 13 3
16 -3 4 -5 11 -9 16 -8z m167 -23 c-18 -20 -33 -23 -33 -7 0 5 6 7 13 3 9 -6
9 -5 0 8 -16 19 -5 32 14 16 11 -9 12 -7 7 8 -5 15 -4 16 5 4 7 -11 6 -19 -6
-32z m1986 25 c0 -10 -3 -13 -5 -6 -3 7 -12 9 -20 6 -13 -5 -13 -7 -2 -14 10
-7 9 -9 -4 -9 -10 0 -18 6 -18 14 0 13 13 20 43 25 4 0 7 -7 6 -16z m279 -9
c-7 -15 -14 -21 -16 -15 -2 7 2 18 8 26 18 22 21 18 8 -11z m-393 6 c3 -5 1
-10 -4 -10 -6 0 -11 5 -11 10 0 6 2 10 4 10 3 0 8 -4 11 -10z m520 -7 c-1 -10
-8 -17 -15 -15 -6 1 -9 -2 -5 -8 7 -11 4 -12 -37 -15 -34 -2 -35 1 -7 16 15 8
19 8 15 0 -4 -6 -2 -11 3 -11 6 0 11 9 11 21 0 11 5 17 10 14 6 -3 10 -1 10 4
0 6 4 11 9 11 5 0 8 -8 6 -17z m-159 -13 c0 -12 -4 -16 -9 -11 -5 5 -16 7 -24
4 -12 -5 -12 -7 -1 -14 9 -6 4 -9 -14 -9 -37 0 -35 14 5 34 41 20 43 20 43 -4z
m-2602 -5 c3 -8 1 -15 -4 -15 -6 0 -10 7 -10 15 0 8 2 15 4 15 2 0 6 -7 10
-15z m326 -5 c0 -11 -7 -20 -15 -20 -8 0 -24 -9 -35 -20 -16 -16 -20 -17 -20
-5 0 8 5 15 10 15 6 0 10 8 11 18 0 9 3 12 5 5 6 -13 34 -6 34 9 0 5 -5 6 -12
2 -7 -4 -8 -3 -4 4 11 19 26 14 26 -8z m2100 0 c0 -5 -4 -10 -10 -10 -5 0 -10
5 -10 10 0 6 5 10 10 10 6 0 10 -4 10 -10z m-2370 -18 c0 -5 -7 -9 -15 -9 -8
0 -12 4 -9 9 3 4 9 8 15 8 5 0 9 -4 9 -8z m195 -16 c-12 -19 -24 -23 -61 -23
-24 0 -47 5 -51 11 -3 6 -3 8 2 4 4 -4 14 -1 22 7 8 8 20 15 26 15 7 0 6 -4
-3 -10 -8 -5 -11 -12 -8 -15 4 -4 12 1 18 12 7 10 25 19 41 20 28 2 28 1 14
-21z m95 -11 c0 -9 -9 -15 -22 -15 -22 1 -23 1 -4 15 25 19 26 19 26 0z m585
-55 c3 -6 -1 -7 -9 -4 -18 7 -21 14 -7 14 6 0 13 -4 16 -10z m1643 -112 c4
-29 -21 -44 -38 -23 -9 10 -9 19 0 35 14 27 34 21 38 -12z m-2208 -69 c0 -29
-43 -47 -66 -28 -18 15 -10 40 17 54 27 15 49 4 49 -26z m567 -61 c-3 -8 -6
-5 -6 6 -1 11 2 17 5 13 3 -3 4 -12 1 -19z m57 -14 c9 -3 16 -12 16 -20 0 -17
-12 -18 -28 -2 -22 22 -16 33 12 22z m1836 -264 c0 -5 -6 -13 -14 -17 -7 -4
-17 -26 -22 -47 -12 -53 -38 -63 -32 -12 3 30 1 36 -15 36 -29 0 -15 22 24 36
42 16 59 17 59 4z m-409 -30 c11 0 19 -7 19 -16 0 -13 -7 -15 -36 -9 -24 4
-34 3 -29 -4 3 -6 17 -11 31 -11 14 0 24 -6 24 -15 0 -11 -8 -13 -32 -8 -22 4
-29 3 -24 -5 4 -7 20 -12 37 -12 20 0 29 -5 29 -16 0 -13 -7 -15 -31 -10 -17
3 -40 6 -50 6 -16 0 -19 8 -19 56 l0 57 31 -7 c17 -3 40 -6 50 -6z m79 -40 c0
-38 2 -40 30 -40 20 0 30 -5 30 -15 0 -11 -12 -15 -50 -15 l-50 0 0 55 c0 48
2 55 20 55 17 0 20 -7 20 -40z m-2292 -36 c36 -10 28 -35 -10 -27 -22 4 -29 3
-24 -5 4 -7 16 -12 27 -12 11 0 19 -7 19 -16 0 -12 -6 -15 -25 -10 -14 4 -25
2 -25 -4 0 -5 11 -10 24 -10 24 0 43 -16 32 -27 -3 -3 -26 -2 -51 1 l-45 7 0
55 c0 52 1 54 28 54 15 0 37 -3 50 -6z m92 -49 c0 -43 1 -45 30 -45 20 0 30
-5 30 -15 0 -11 -12 -15 -50 -15 -27 0 -50 5 -51 10 0 6 -1 26 -1 45 0 61 2
65 22 65 17 0 20 -7 20 -45z m620 36 c0 -5 -7 -11 -15 -15 -8 -3 -15 -13 -15
-23 0 -15 -2 -16 -10 -3 -6 10 -4 20 8 32 19 19 32 23 32 9z m990 -25 c0 -3
-4 -8 -10 -11 -5 -3 -10 -1 -10 4 0 6 5 11 10 11 6 0 10 -2 10 -4z m-13 -58
c-3 -7 -5 -2 -5 12 0 14 2 19 5 13 2 -7 2 -19 0 -25z m470 0 c-3 -7 -5 -2 -5
12 0 14 2 19 5 13 2 -7 2 -19 0 -25z m50 -10 c-3 -7 -5 -2 -5 12 0 14 2 19 5
13 2 -7 2 -19 0 -25z m293 28 c0 -3 -4 -8 -10 -11 -5 -3 -10 -1 -10 4 0 6 5
11 10 11 6 0 10 -2 10 -4z m-203 -28 c-3 -8 -6 -5 -6 6 -1 11 2 17 5 13 3 -3
4 -12 1 -19z m30 0 c-3 -8 -6 -5 -6 6 -1 11 2 17 5 13 3 -3 4 -12 1 -19z m50
0 c-3 -8 -6 -5 -6 6 -1 11 2 17 5 13 3 -3 4 -12 1 -19z m-1776 -11 c-13 -13
-26 -3 -16 12 3 6 11 8 17 5 6 -4 6 -10 -1 -17z m79 13 c0 -5 -5 -10 -11 -10
-5 0 -7 5 -4 10 3 6 8 10 11 10 2 0 4 -4 4 -10z m1120 -50 c0 -5 -4 -10 -10
-10 -5 0 -10 5 -10 10 0 6 5 10 10 10 6 0 10 -4 10 -10z m-1703 -42 c-3 -8 -6
-5 -6 6 -1 11 2 17 5 13 3 -3 4 -12 1 -19z m538 -128 c10 -11 26 -20 37 -20
13 0 18 -8 19 -27 0 -16 2 -44 4 -63 2 -19 6 -82 10 -140 3 -58 8 -121 10
-140 2 -19 6 -96 9 -170 9 -200 15 -233 37 -226 55 17 58 13 9 -11 -48 -24
-70 -28 -168 -31 -89 -3 -123 -1 -158 13 -46 17 -84 56 -83 84 0 10 4 8 10 -7
12 -31 34 -23 33 12 -1 26 1 27 35 22 39 -7 50 -2 67 29 9 15 7 27 -7 51 -10
18 -15 35 -12 38 4 3 0 6 -8 6 -12 0 -12 2 0 9 9 6 10 11 2 15 -6 4 -13 -4
-17 -19 -7 -28 -20 -31 -48 -10 -19 14 -19 15 -1 15 15 0 14 4 -9 25 -40 37
-30 51 37 47 l57 -4 -1 44 c-1 23 -6 95 -13 158 -10 102 -13 115 -31 118 -96
16 -96 16 -110 122 l-7 45 117 -3 c109 -3 118 -2 132 17 18 26 25 26 48 1z
m88 -10 c3 -11 1 -18 -4 -14 -5 3 -9 12 -9 20 0 20 7 17 13 -6z m1104 -20 c1
0 0 -7 -3 -15 -5 -11 1 -15 22 -16 78 -3 162 4 187 16 26 13 27 13 26 -13 0
-15 -6 -49 -12 -77 -10 -43 -17 -53 -49 -68 -21 -10 -38 -23 -38 -28 0 -6 4
-8 9 -4 5 3 13 -5 17 -17 4 -13 10 -25 14 -28 4 -3 10 -25 13 -50 3 -25 3 -39
0 -32 -4 10 -8 10 -20 0 -14 -11 -15 -8 -8 30 5 29 3 42 -5 42 -6 0 -8 5 -4
13 5 7 2 7 -10 -2 -9 -8 -22 -24 -28 -35 -9 -17 -8 -19 3 -8 20 18 29 15 29
-13 0 -14 -5 -25 -11 -25 -6 0 -1 -8 11 -18 14 -11 19 -23 15 -35 -10 -26 -34
-21 -29 6 2 12 -2 6 -10 -13 l-14 -35 -1 29 c-2 50 -14 20 -16 -39 -1 -30 2
-55 7 -55 5 0 22 7 38 15 22 11 30 23 31 43 1 18 3 21 6 9 8 -31 -47 -310 -66
-337 -32 -46 -96 -70 -186 -70 -97 0 -172 19 -237 60 -27 16 -51 30 -53 30 -2
0 -13 -19 -23 -42 -46 -104 -151 -154 -307 -145 -134 7 -200 37 -245 109 -17
28 -16 88 1 88 5 0 9 15 9 33 0 17 3 49 6 70 6 36 7 37 26 21 13 -13 21 -15
30 -6 10 10 9 19 -10 52 -37 64 -40 79 -15 76 10 -2 21 -14 24 -27 l7 -24 1
25 c0 14 -4 43 -9 65 -5 22 -5 41 -1 43 5 2 7 12 4 22 -3 11 -8 18 -12 16 -4
-3 -7 12 -8 32 -1 20 -4 53 -6 72 -3 19 -7 56 -8 81 -1 36 -6 47 -23 55 -25
11 -34 62 -14 76 10 7 10 11 1 15 -19 7 -16 26 3 19 8 -3 12 -2 9 4 -8 13 -4
13 36 -4 19 -7 73 -19 120 -26 74 -11 89 -11 114 3 27 14 33 14 59 0 33 -17
158 -13 211 7 42 16 48 3 36 -81 -10 -69 -14 -170 -12 -316 1 -67 -16 -137
-19 -78 l-2 30 -9 -30 c-5 -16 -9 -46 -9 -65 1 -19 -2 -47 -6 -62 -4 -19 -2
-28 6 -28 9 0 9 -4 -1 -17 -10 -11 -10 -14 -1 -9 8 5 12 1 12 -12 0 -11 8 -22
18 -25 9 -3 37 -18 61 -33 33 -20 43 -23 38 -11 -4 10 -2 17 4 17 5 0 9 17 9
38 -2 39 13 219 29 357 5 44 12 116 16 160 3 44 8 101 11 128 l6 47 45 0 c29
0 53 7 69 19 20 16 31 18 57 10 17 -5 33 -9 34 -9z m-956 -356 c6 -167 6 -251
-1 -258 -7 -7 -10 14 -10 65 0 40 -3 160 -6 264 -4 105 -4 187 0 183 4 -3 12
-118 17 -254z m-1164 194 c-3 -8 -6 -5 -6 6 -1 11 2 17 5 13 3 -3 4 -12 1 -19z
m647 -13 c3 -9 0 -15 -9 -15 -8 0 -15 7 -15 15 0 8 4 15 9 15 5 0 11 -7 15
-15z m59 -87 l14 -33 7 33 c8 36 22 42 31 13 8 -26 2 -141 -7 -141 -8 0 -11
26 -10 85 1 24 0 26 -6 9 -4 -11 -17 -33 -30 -50 -15 -19 -20 -22 -15 -9 3 11
10 22 14 25 5 3 4 19 0 35 l-9 30 -1 -29 c-1 -39 -7 -30 -14 22 -6 50 7 55 26
10z m-648 -8 c10 -11 16 -20 13 -20 -3 0 -13 9 -23 20 -10 11 -16 20 -13 20 3
0 13 -9 23 -20z m2305 -30 c41 -22 33 -27 -9 -5 -16 8 -31 11 -35 8 -3 -4 -6
-1 -6 5 0 16 9 15 50 -8z m440 -10 c-8 -5 -19 -10 -25 -10 -5 0 -3 5 5 10 8 5
20 10 25 10 6 0 3 -5 -5 -10z m-343 -26 c-3 -3 -12 -4 -19 -1 -8 3 -5 6 6 6
11 1 17 -2 13 -5z m270 0 c-3 -3 -12 -4 -19 -1 -8 3 -5 6 6 6 11 1 17 -2 13
-5z m-224 -11 c-7 -2 -19 -2 -25 0 -7 3 -2 5 12 5 14 0 19 -2 13 -5z m180 0
c-7 -2 -19 -2 -25 0 -7 3 -2 5 12 5 14 0 19 -2 13 -5z m-2064 -99 c6 -53 9
-99 6 -102 -3 -3 -5 1 -5 9 0 8 -25 24 -57 37 -32 12 -89 42 -127 66 l-69 44
73 7 c41 4 90 13 109 21 20 7 41 13 47 13 6 1 16 -39 23 -95z m1678 59 c-3
-10 -5 -4 -5 12 0 17 2 24 5 18 2 -7 2 -21 0 -30z m311 30 c-10 -2 -28 -2 -40
0 -13 2 -5 4 17 4 22 1 32 -1 23 -4z m-2351 -19 c-3 -3 -12 -4 -19 -1 -8 3 -5
6 6 6 11 1 17 -2 13 -5z m50 -10 c-3 -3 -12 -4 -19 -1 -8 3 -5 6 6 6 11 1 17
-2 13 -5z m330 -216 c-3 -7 -5 -2 -5 12 0 14 2 19 5 13 2 -7 2 -19 0 -25z m10
-65 c-3 -10 -5 -4 -5 12 0 17 2 24 5 18 2 -7 2 -21 0 -30z"/>
<path d="M1125 3035 l-30 -25 51 2 c47 1 50 3 46 25 -6 30 -29 29 -67 -2z"/>
<path d="M1384 3021 c3 -5 17 -8 31 -8 14 0 25 3 25 8 0 5 -14 9 -31 9 -16 0
-28 -4 -25 -9z"/>
<path d="M1258 3013 c6 -2 18 -2 25 0 6 3 1 5 -13 5 -14 0 -19 -2 -12 -5z"/>
<path d="M902 2940 c0 -19 2 -27 5 -17 2 9 2 25 0 35 -3 9 -5 1 -5 -18z"/>
<path d="M1250 2569 c0 -5 5 -7 10 -4 6 3 10 8 10 11 0 2 -4 4 -10 4 -5 0 -10
-5 -10 -11z"/>
<path d="M1095 2499 c-4 -6 -4 -13 -1 -16 3 -4 6 -1 6 6 0 7 5 9 12 5 7 -4 8
-3 4 4 -9 15 -13 15 -21 1z"/>
<path d="M2955 2878 c-22 -12 -35 -23 -28 -25 11 -4 93 33 93 42 0 10 -27 3
-65 -17z"/>
<path d="M2888 2768 c-12 -10 -17 -33 -20 -90 -2 -43 0 -78 5 -78 14 0 51 23
64 39 20 26 14 36 -7 13 -12 -12 -28 -22 -37 -22 -13 0 -15 9 -9 62 4 35 9 64
10 65 1 2 13 4 26 5 20 2 27 -4 37 -32 l13 -35 -3 40 c-2 37 -5 40 -32 43 -16
2 -37 -3 -47 -10z"/>
<path d="M2040 2687 l0 -84 39 -11 c58 -18 89 -15 96 8 7 22 21 25 59 10 16
-6 26 -17 26 -29 0 -10 7 -22 16 -25 12 -5 15 -2 9 11 -4 10 -11 32 -15 48
-14 54 -32 100 -45 114 -14 15 -35 7 -35 -13 0 -11 -37 -104 -45 -114 -2 -2
-21 2 -44 8 l-41 11 0 74 c0 43 -4 75 -10 75 -6 0 -10 -34 -10 -83z m183 6 c2
-5 7 -20 11 -35 6 -25 4 -28 -19 -28 -26 0 -29 9 -19 48 6 22 19 29 27 15z"/>
<path d="M2794 2748 c-41 -10 -42 -11 -48 -62 -3 -28 -6 -66 -6 -85 l0 -34 42
7 c46 7 58 13 58 26 0 5 -14 4 -32 -1 -18 -5 -36 -9 -40 -9 -13 0 -9 60 5 65
53 19 69 26 65 30 -2 3 -19 0 -37 -5 -31 -9 -32 -8 -29 17 2 19 12 29 35 37
17 6 35 14 39 19 9 8 2 8 -52 -5z"/>
<path d="M2319 2674 c0 -27 -2 -66 -4 -86 -3 -28 0 -38 10 -38 10 0 15 10 15
30 0 23 5 30 19 30 11 0 26 -8 33 -18 7 -10 27 -27 43 -38 l30 -19 -33 42
c-26 33 -30 43 -19 50 20 12 29 59 14 71 -6 6 -33 13 -59 17 l-48 7 -1 -48z
m92 10 c19 -23 -1 -49 -37 -49 -25 0 -29 4 -32 33 -3 30 -1 32 26 32 16 0 35
-7 43 -16z"/>
<path d="M2596 2711 c-12 -19 -19 -161 -8 -161 6 0 12 14 14 32 4 43 23 46 55
9 38 -43 61 -41 29 2 -26 34 -26 34 -6 52 23 20 26 45 8 63 -14 14 -84 16 -92
3z m72 -33 c3 -22 -2 -30 -23 -38 -33 -12 -45 -6 -45 24 0 51 62 63 68 14z"/>
<path d="M3548 2703 c7 -3 16 -2 19 1 4 3 -2 6 -13 5 -11 0 -14 -3 -6 -6z"/>
<path d="M2020 2483 c-4 -309 -1 -496 6 -502 5 -5 35 -18 67 -30 65 -24 199
-30 195 -9 -5 20 30 21 35 1 4 -17 5 -17 6 0 0 9 9 17 19 17 14 0 15 -2 2 -10
-12 -8 -12 -10 3 -16 27 -10 47 3 47 30 0 13 3 26 8 29 4 2 2 3 -4 1 -7 -1
-10 5 -7 17 4 14 11 18 24 14 11 -4 19 -2 19 4 0 6 -9 11 -19 11 -15 0 -19 5
-15 23 3 12 5 37 5 54 1 28 4 32 23 29 11 -3 29 -5 39 -5 9 -1 17 -7 17 -15 0
-8 5 -16 11 -18 8 -3 6 -10 -5 -21 -16 -16 -15 -17 18 -17 26 0 34 4 30 14 -3
8 0 17 6 21 9 6 9 10 -1 16 -21 13 1 28 44 31 21 1 40 5 42 8 2 4 25 8 50 8
43 2 45 1 33 -18 -7 -11 -17 -20 -21 -20 -5 0 -7 -7 -3 -15 3 -8 1 -15 -4 -15
-8 0 -5 -38 5 -67 3 -9 -6 -13 -25 -13 -26 0 -30 -4 -31 -27 -1 -16 -1 -32 0
-37 3 -17 -20 -33 -44 -30 -15 1 -23 -2 -19 -8 7 -10 41 -7 134 13 28 6 48 15
45 20 -4 5 1 6 9 3 8 -3 44 8 79 25 l65 31 6 58 c3 31 8 102 11 157 13 223 14
276 4 270 -5 -4 -7 -11 -4 -16 4 -5 1 -9 -6 -9 -8 0 -8 -4 -1 -12 7 -9 6 -17
-4 -26 -12 -11 -15 -10 -20 2 -3 8 -3 20 1 25 3 6 0 8 -8 5 -19 -7 -16 -47 3
-56 8 -4 -3 -7 -26 -7 -28 -1 -47 -8 -59 -21 -11 -12 -22 -17 -28 -11 -12 12
-49 1 -44 -13 3 -6 -2 -17 -9 -24 -14 -13 -15 -12 -18 11 -1 7 -16 12 -41 12
-23 0 -38 -4 -35 -10 3 -5 8 -9 12 -8 3 1 9 -4 12 -12 4 -11 0 -12 -19 -5 -38
14 -51 -11 -21 -42 16 -19 20 -30 14 -42 -7 -12 -5 -14 7 -10 8 3 13 10 10 15
-3 4 3 13 14 18 16 9 18 8 14 -9 -4 -16 -2 -19 11 -14 9 3 13 10 10 15 -3 5 0
9 5 9 6 0 11 -4 11 -8 0 -5 14 -9 30 -9 17 0 30 4 30 9 0 5 6 8 13 7 17 -3 48
12 43 20 -3 4 3 7 12 7 9 0 30 3 45 7 26 7 27 6 17 -12 -13 -26 -53 -48 -58
-33 -2 6 -11 3 -21 -7 -10 -10 -39 -21 -65 -25 -25 -4 -46 -11 -46 -15 0 -4
-17 -8 -37 -9 -21 -1 -39 -6 -41 -12 -2 -5 -8 -10 -13 -10 -6 0 -8 4 -5 8 6
10 -104 -1 -121 -11 -8 -5 -13 -4 -13 2 0 6 -9 11 -20 11 -11 0 -20 -6 -20
-12 0 -10 -3 -9 -9 1 -5 7 -14 10 -20 7 -6 -4 -13 -1 -16 6 -4 9 -20 12 -50
10 -33 -3 -45 0 -46 9 0 8 -4 5 -9 -6 -8 -19 -9 -19 -9 3 -1 23 1 23 79 18 70
-4 80 -2 80 12 0 13 2 14 9 3 6 -9 14 -10 27 -3 21 11 47 5 39 -9 -4 -5 6 -8
20 -7 16 2 24 7 21 15 -6 16 6 17 20 3 7 -7 11 -7 12 2 0 7 3 23 7 34 5 16 2
23 -14 27 -12 3 -28 -1 -36 -9 -10 -11 -29 -13 -72 -9 -77 7 -110 12 -122 19
-5 3 -11 1 -13 -5 -5 -15 -80 1 -86 19 -3 9 12 10 60 6 35 -3 58 -2 51 3 -18
13 -27 60 -13 68 9 6 9 9 0 15 -26 16 2 31 51 26 36 -4 49 -2 49 8 0 9 -13 13
-42 11 -24 -1 -49 2 -56 8 -8 7 -20 6 -36 -1 -13 -6 -27 -7 -32 -2 -5 5 -58
21 -119 35 -60 15 -118 31 -127 36 -16 9 -18 4 -18 -38z m179 -39 c2 -2 2 -7
-2 -10 -8 -9 -47 6 -47 17 0 9 37 3 49 -7z m51 -16 c0 -10 3 -9 9 1 10 16 62
3 69 -18 4 -12 -20 -11 -95 5 -28 5 -30 24 -3 24 11 0 20 -6 20 -12z m-58 -30
c-9 -9 -42 -1 -42 12 0 4 12 5 26 2 15 -3 22 -8 16 -14z m38 3 c0 -5 9 -7 20
-4 12 3 20 0 20 -6 0 -7 5 -9 10 -6 13 8 50 -4 50 -16 0 -5 -3 -8 -7 -8 -22 4
-43 -2 -39 -10 8 -13 -21 -22 -41 -13 -10 4 -19 13 -20 20 -4 15 2 15 29 1 16
-9 19 -8 16 3 -3 7 -10 14 -16 14 -7 1 -19 2 -27 3 -16 1 -21 31 -5 31 6 0 10
-4 10 -9z m-46 -31 c14 -5 26 -14 26 -19 0 -13 -53 2 -58 17 -5 15 -1 15 32 2z
m156 -31 c0 -5 -9 -9 -20 -9 -19 0 -26 11 -14 23 8 8 34 -3 34 -14z m-127 -15
c15 -3 27 -10 27 -15 0 -11 -34 -12 -44 -1 -4 4 -12 8 -17 8 -5 1 -13 2 -19 3
-5 0 -10 6 -10 12 0 6 8 8 18 5 9 -3 29 -8 45 -12z m537 -13 c0 -5 -7 -11 -14
-14 -10 -4 -13 -1 -9 9 6 15 23 19 23 5z m-180 -45 c0 -2 -7 -7 -16 -10 -8 -3
-12 -2 -9 4 6 10 25 14 25 6z m-450 -22 c0 -2 -9 -4 -20 -4 -11 0 -20 4 -20 9
0 5 9 7 20 4 11 -3 20 -7 20 -9z m40 -16 c0 -13 -23 -5 -28 10 -2 7 2 10 12 6
9 -3 16 -11 16 -16z m73 -4 c37 -9 34 -21 -7 -26 -21 -2 -34 0 -33 7 1 5 -4 9
-10 8 -7 -2 -13 4 -13 13 0 10 6 14 18 10 9 -3 29 -8 45 -12z m572 -72 c-3 -3
-11 0 -18 7 -9 10 -8 11 6 5 10 -3 15 -9 12 -12z m-405 -18 c0 -15 -50 -24
-72 -13 -9 5 -23 9 -30 9 -20 -1 23 -30 44 -30 10 0 18 -4 18 -10 0 -12 -7
-12 -49 -4 -26 5 -31 11 -31 34 0 27 1 27 60 26 37 -1 60 -5 60 -12z m-42 -84
c3 -9 -2 -11 -17 -7 -11 3 -21 1 -21 -4 0 -10 14 -13 44 -9 11 1 15 -3 12 -9
-9 -14 -86 -15 -86 -1 0 6 5 10 10 10 6 0 10 5 10 10 0 6 -7 10 -15 10 -8 0
-15 5 -15 10 0 15 73 6 78 -10z m390 -11 c-3 -8 -7 -3 -11 10 -4 17 -3 21 5
13 5 -5 8 -16 6 -23z m-428 -54 c0 -8 -4 -15 -10 -15 -5 0 -10 5 -10 11 0 5
-5 7 -12 3 -7 -4 -8 -3 -4 4 10 17 36 15 36 -3z m30 -6 c0 -5 -4 -9 -10 -9 -5
0 -10 7 -10 16 0 8 5 12 10 9 6 -3 10 -10 10 -16z m363 3 c4 8 6 7 6 -4 1 -10
-2 -18 -6 -18 -12 1 -43 26 -43 35 0 5 9 0 19 -9 15 -13 20 -14 24 -4z"/>
<path d="M2160 2519 c0 -5 5 -7 10 -4 6 3 10 8 10 11 0 2 -4 4 -10 4 -5 0 -10
-5 -10 -11z"/>
<path d="M2711 2514 c0 -11 3 -14 6 -6 3 7 2 16 -1 19 -3 4 -6 -2 -5 -13z"/>
<path d="M1905 2490 c-12 -20 7 -50 43 -67 20 -9 40 -18 44 -20 4 -2 6 10 6
27 -1 26 -8 35 -39 51 -44 22 -46 22 -54 9z"/>
<path d="M2465 2439 c-9 -14 -2 -20 14 -10 8 6 9 11 3 15 -6 3 -14 1 -17 -5z"/>
<path d="M2608 2443 c7 -3 16 -2 19 1 4 3 -2 6 -13 5 -11 0 -14 -3 -6 -6z"/>
<path d="M2387 2323 c-4 -3 -7 -11 -7 -17 0 -6 5 -5 12 2 6 6 9 14 7 17 -3 3
-9 2 -12 -2z"/>
<path d="M2445 2320 c-3 -5 1 -10 10 -10 9 0 13 5 10 10 -3 6 -8 10 -10 10 -2
0 -7 -4 -10 -10z"/>
<path d="M1920 2310 c0 -5 5 -10 11 -10 5 0 7 5 4 10 -3 6 -8 10 -11 10 -2 0
-4 -4 -4 -10z"/>
<path d="M2600 2244 c0 -8 5 -12 10 -9 6 3 10 10 10 16 0 5 -4 9 -10 9 -5 0
-10 -7 -10 -16z"/>
<path d="M2638 2123 c7 -3 16 -2 19 1 4 3 -2 6 -13 5 -11 0 -14 -3 -6 -6z"/>
<path d="M2583 2113 c9 -2 17 -9 17 -14 0 -6 5 -7 10 -4 16 10 1 25 -23 24
-17 -1 -18 -2 -4 -6z"/>
<path d="M2420 2084 c0 -14 4 -23 9 -20 5 4 11 3 14 -1 2 -5 2 -2 0 5 -1 8 -3
20 -3 28 0 8 -4 14 -10 14 -5 0 -10 -12 -10 -26z"/>
<path d="M2492 2018 c-4 -18 -13 -22 -42 -19 -13 2 -13 1 0 -9 13 -9 13 -11 0
-21 -11 -8 -12 -12 -2 -16 6 -2 12 -11 12 -19 0 -9 11 -14 34 -14 28 0 35 4
40 25 4 14 4 30 1 35 -4 6 3 11 14 11 34 2 39 4 48 13 5 5 -8 6 -29 3 -42 -6
-58 6 -31 22 15 9 13 10 -11 8 -18 -1 -31 -8 -34 -19z"/>
<path d="M1190 2400 c0 -5 5 -10 11 -10 5 0 7 5 4 10 -3 6 -8 10 -11 10 -2 0
-4 -4 -4 -10z"/>
<path d="M2071 1263 c7 -12 15 -20 18 -17 3 2 -3 12 -13 22 -17 16 -18 16 -5
-5z"/>
<path d="M2213 935 c0 -38 2 -53 4 -32 2 20 2 52 0 70 -2 17 -4 1 -4 -38z"/>
<path d="M2200 845 c0 -8 5 -15 10 -15 6 0 10 7 10 15 0 8 -4 15 -10 15 -5 0
-10 -7 -10 -15z"/>
<path d="M3115 755 c-3 -8 -7 -22 -10 -31 -3 -9 0 -14 7 -12 15 5 30 58 17 58
-5 0 -12 -7 -14 -15z"/>
</g>
</svg>
